# xmcd CD database file
#
# Track frame offsets:
#	150
#	15275
#	32700
#	51150
#	70580
#	90350
#	105075
#	125963
#	141050
#	152238
#
# Disc length: 2251 seconds
#
# Revision: 0
# Processed by: cddbd v1.5PL3 Copyright (c) Steve Scherf et al.
# Submitted via: CDex 1.50beta9
#
DISCID=7408c90a
DTITLE=THE COLLECTORS - MIGHTY BLOW
DYEAR=1996
DGENRE=Rock
TTITLE0=クルーソー
TTITLE1=涙のレインボーアイズ
TTITLE2=GLORY DAYS
TTITLE3=パーティ･クィーン
TTITLE4=LOVE SICK!
TTITLE5=The Game of Life
TTITLE6=愛の種
TTITLE7=スペース・エイリアン
TTITLE8=恋はLet's Go
TTITLE9=カラス
EXTD=YEAR: 1996
EXTT0=
EXTT1=
EXTT2=
EXTT3=
EXTT4=
EXTT5=
EXTT6=
EXTT7=
EXTT8=
EXTT9=
PLAYORDER=
